PathFileType	4	(X/Y/Z)	/Users/itak/Documents/Research/Walk-IL/dataset/trc/00541_00009.trc
DataRate	CameraRate	NumFrames	NumMarkers	Units	OrigDataRate	OrigDataStartFrame	OrigNumFrames
100.000000	100.000000	4	53	mm	100.000000	219	878
Frame#	Time	RPSI			LPSI			L3			STRN			T10			C7			CLAV			RBAK			LBAK			LSHO			LUPA			LAEL			LAOL			LWTS			LWPS			LFRA			LIFD			LHPS			LHTS			RSHO			RUPA			RAEL			RAOL			RWTS			RWPS			RFRA			RIFD			RHTS			RHPS			RBHD			LFHD			RFHD			LBHD			LHIP			RHIP			RASI			LASI			LKNE			LTHI			LANK			LTIP			LTOE			LMT1			LMT5			LHEE			RKNE			RTHI			RANK			RTIP			RTOE			RMT1			RMT5			RHEE			
		X1	Y1	Z1	X2	Y2	Z2	X3	Y3	Z3	X4	Y4	Z4	X5	Y5	Z5	X6	Y6	Z6	X7	Y7	Z7	X8	Y8	Z8	X9	Y9	Z9	X10	Y10	Z10	X11	Y11	Z11	X12	Y12	Z12	X13	Y13	Z13	X14	Y14	Z14	X15	Y15	Z15	X16	Y16	Z16	X17	Y17	Z17	X18	Y18	Z18	X19	Y19	Z19	X20	Y20	Z20	X21	Y21	Z21	X22	Y22	Z22	X23	Y23	Z23	X24	Y24	Z24	X25	Y25	Z25	X26	Y26	Z26	X27	Y27	Z27	X28	Y28	Z28	X29	Y29	Z29	X30	Y30	Z30	X31	Y31	Z31	X32	Y32	Z32	X33	Y33	Z33	X34	Y34	Z34	X35	Y35	Z35	X36	Y36	Z36	X37	Y37	Z37	X38	Y38	Z38	X39	Y39	Z39	X40	Y40	Z40	X41	Y41	Z41	X42	Y42	Z42	X43	Y43	Z43	X44	Y44	Z44	X45	Y45	Z45	X46	Y46	Z46	X47	Y47	Z47	X48	Y48	Z48	X49	Y49	Z49	X50	Y50	Z50	X51	Y51	Z51	X52	Y52	Z52	X53	Y53	Z53	

220	2.19	-707.2372436523438	1013.430969238281	346.5539245605469	-697.4537353515625	1013.863342285156	212.8855133056641	-698.8321533203125	1110.07421875	271.8167114257812	-459.6760559082031	1288.208984375	275.8449096679688	-703.3246459960938	1234.963012695312	267.025634765625	-647.9483642578125	1506.582763671875	276.458740234375	-476.1596984863281	1400.247924804688	275.1528015136719	-726.3294677734375	1385.751098632812	361.0230102539062	-678.8768920898438	1453.797607421875	183.5856781005859	-575.4912109375	1474.505249023438	107.0595550537109	-581.6592407226562	1347.423828125	28.5447826385498	-554.8269653320312	1124.027099609375	14.32172393798828	-648.8084106445312	1117.365844726562	50.00596237182617	-473.8762817382812	880.9801635742188	79.24790191650391	-507.1275939941406	857.7257080078125	2.034988403320312	-531.5635986328125	1037.740600585938	13.04991245269775	-477.5189819335938	709.9783935546875	77.63516998291016	-500.5157470703125	797.8519897460938	12.67015647888184	-456.1430053710938	803.2318725585938	63.57787322998047	-596.8035888671875	1469.129760742188	434.0067443847656	-620.9868774414062	1405.751708984375	501.8727111816406	-636.1212158203125	1117.308837890625	550.4326171875	-688.57958984375	1100.36669921875	519.8690795898438	-504.1197204589844	893.928955078125	523.6780395507812	-553.6146850585938	875.4803466796875	587.771728515625	-626.4008178710938	1061.707275390625	559.0109252929688	-497.5590209960938	720.5549926757812	531.5310668945312	-479.3840026855469	801.4855346679688	542.7138061523438	-537.0536499023438	801.2175903320312	588.8112182617188	-578.7581787109375	1682.096801757812	343.0043029785156	-418.7962036132812	1709.910278320312	213.1760101318359	-441.5413818359375	1710.297973632812	355.7385559082031	-545.3815307617188	1680.63916015625	180.3614044189453	-573.8531494140625	932.056884765625	84.65487670898438	-583.6671752929688	948.934814453125	475.5928955078125	-497.8631896972656	978.2605590820312	415.4462585449219	-491.4134216308594	952.1962890625	141.4244384765625	-579.3153686523438	484.8251037597656	180.5895690917969	-563.4783935546875	646.7100219726562	132.134033203125	-691.5725708007812	31.74310493469238	221.4660797119141	-659.0204467773438	244.6503143310547	195.1450653076172	-485.8480529785156	37.2963752746582	294.0719604492188	-560.4326171875	41.41881561279297	324.7095031738281	-567.7831420898438	34.03743743896484	215.9344787597656	-765.2510986328125	38.28728866577148	271.0867004394531	-430.4755554199219	527.4331665039062	452.8585205078125	-511.8786315917969	805.4882202148438	484.0103149414062	-465.9851379394531	47.35770416259766	463.8956604003906	-411.106689453125	381.1368408203125	451.4864196777344	-253.1473236083984	87.82218170166016	424.8734436035156	-314.3234558105469	74.10330200195312	383.0215759277344	-336.7899475097656	64.76495361328125	483.7402038574219	-519.7980346679688	35.84057998657227	407.613525390625	
221	2.2	-705.8272094726562	1013.188537597656	346.8928833007812	-696.1654052734375	1013.704040527344	213.224365234375	-697.4962158203125	1109.99609375	272.1428527832031	-458.190673828125	1288.00830078125	275.979736328125	-701.9160766601562	1234.8896484375	267.3057250976562	-646.3145751953125	1506.46337890625	276.6698913574219	-474.560302734375	1400.072387695312	275.2761840820312	-724.731201171875	1385.698120117188	361.3042907714844	-677.3372802734375	1453.71044921875	183.8040008544922	-573.912109375	1474.352416992188	107.215217590332	-580.1991577148438	1347.23974609375	28.70158958435059	-553.57080078125	1123.836791992188	14.52497482299805	-647.5615234375	1117.259765625	50.18545150756836	-472.9636840820312	880.6612548828125	79.36093902587891	-506.2838439941406	857.4728393554688	2.117526292800903	-530.459716796875	1037.485473632812	13.2059268951416	-476.8310546875	709.6685180664062	77.64787292480469	-499.8145446777344	797.5538330078125	12.77431583404541	-455.392578125	802.8577880859375	63.69196701049805	-595.1029052734375	1469.082885742188	434.1690673828125	-619.2670288085938	1405.654174804688	502.0908508300781	-634.5360717773438	1117.211669921875	550.6376953125	-687.0791015625	1100.280029296875	520.1494140625	-502.7083129882812	893.7565307617188	523.7655029296875	-552.1155395507812	875.3270263671875	587.8687744140625	-624.9310913085938	1061.585327148438	559.1365356445312	-496.1764526367188	720.3819580078125	531.5628051757812	-477.9449768066406	801.3351440429688	542.74951171875	-535.580322265625	801.077880859375	588.8790893554688	-576.9926147460938	1681.960815429688	343.2040710449219	-417.1720275878906	1709.694213867188	213.1888275146484	-439.7178039550781	1710.13623046875	355.7688293457031	-543.8265380859375	1680.430419921875	180.5294036865234	-572.5238647460938	931.780517578125	84.95794677734375	-582.0501708984375	948.8246459960938	475.8379821777344	-496.3338317871094	978.14697265625	415.4703369140625	-490.1825866699219	952.0414428710938	141.5366058349609	-578.6531372070312	484.7239685058594	180.7174682617188	-562.6615600585938	646.6456909179688	132.2463989257812	-691.5145263671875	31.80759429931641	221.5022735595703	-658.6792602539062	244.6810455322266	195.3297424316406	-485.8329467773438	37.26217651367188	294.0924682617188	-560.3948974609375	41.40088653564453	324.7157287597656	-567.8071899414062	34.19406509399414	215.9503021240234	-765.219970703125	38.34901428222656	271.1061401367188	-427.4983825683594	527.8955078125	452.8918762207031	-509.8023071289062	805.579345703125	483.9947509765625	-458.4026794433594	47.43429183959961	463.5789184570312	-406.8084411621094	381.8156433105469	451.4141235351562	-245.9227752685547	89.10527038574219	424.2387390136719	-307.0189208984375	75.12847900390625	382.5005493164062	-329.2462463378906	65.38947296142578	483.2113342285156	-512.1572875976562	35.77500152587891	407.2765197753906	
222	2.21	-704.3834838867188	1012.943115234375	347.2747802734375	-694.8370361328125	1013.539672851562	213.5834655761719	-696.1263427734375	1109.91064453125	272.4900207519531	-456.6820068359375	1287.808349609375	276.126708984375	-700.46484375	1234.795043945312	267.588623046875	-644.6735229492188	1506.335083007812	276.9047241210938	-472.9532165527344	1399.8955078125	275.4125061035156	-723.1159057617188	1385.626342773438	361.6163635253906	-675.7884521484375	1453.6103515625	184.0437622070312	-572.3386840820312	1474.202880859375	107.401969909668	-578.7273559570312	1347.054321289062	28.8792610168457	-552.2876586914062	1123.646484375	14.76336097717285	-646.2958374023438	1117.137573242188	50.39188003540039	-472.0033874511719	880.3497924804688	79.49947357177734	-505.3795166015625	857.213134765625	2.228636503219604	-529.3242797851562	1037.222900390625	13.3701696395874	-476.0613403320312	709.388916015625	77.64433288574219	-499.035888671875	797.23779296875	12.87201118469238	-454.5619201660156	802.4968872070312	63.83065795898438	-593.3895874023438	1469.016357421875	434.3630676269531	-617.51708984375	1405.550903320312	502.3241577148438	-632.9178466796875	1117.107666015625	550.8632202148438	-685.5498046875	1100.188720703125	520.4512329101562	-501.2977600097656	893.540283203125	523.871826171875	-550.6066284179688	875.1619873046875	587.9905395507812	-623.4542236328125	1061.46630859375	559.2461547851562	-494.8015441894531	720.1766357421875	531.6173706054688	-476.4734802246094	801.1937866210938	542.7945556640625	-534.11474609375	800.9179077148438	588.9801635742188	-575.2130737304688	1681.819946289062	343.4182739257812	-415.5380859375	1709.463745117188	213.2194213867188	-437.8878173828125	1709.949340820312	355.8189086914062	-542.2617797851562	1680.224487304688	180.71630859375	-571.13720703125	931.4788208007812	85.27751922607422	-580.3856811523438	948.7110595703125	476.102294921875	-494.7754821777344	978.031494140625	415.5231323242188	-488.9376525878906	951.873046875	141.6615142822266	-577.987060546875	484.6126098632812	180.8616027832031	-561.7892456054688	646.59130859375	132.3581237792969	-691.4474487304688	31.88207244873047	221.5291442871094	-658.3286743164062	244.7081604003906	195.5013732910156	-485.8182067871094	37.22885513305664	294.1128234863281	-560.3530883789062	41.38141250610352	324.7184753417969	-567.8221435546875	34.32228851318359	215.9676971435547	-765.1868896484375	38.40548324584961	271.1217956542969	-424.5451965332031	528.3278198242188	452.9133605957031	-507.7321166992188	805.6333618164062	483.9822082519531	-450.9855041503906	47.5443115234375	463.2547607421875	-402.5650024414062	382.4551391601562	451.3209228515625	-238.89111328125	90.41879272460938	423.5702819824219	-299.8699035644531	76.15257263183594	381.9627380371094	-321.845947265625	66.03060150146484	482.6473083496094	-504.5635070800781	35.66579055786133	406.8274536132812	
223	2.22	-702.9043579101562	1012.699584960938	347.6985778808594	-693.4706420898438	1013.370239257812	213.9637603759766	-694.7166748046875	1109.815795898438	272.8544006347656	-455.1473388671875	1287.611450195312	276.2852783203125	-698.9737548828125	1234.677978515625	267.8817443847656	-643.0262451171875	1506.19775390625	277.1617736816406	-471.3387145996094	1399.717895507812	275.5624389648438	-721.482421875	1385.537109375	361.9594421386719	-674.2310180664062	1453.4970703125	184.3064575195312	-570.7723388671875	1474.052124023438	107.6201553344727	-577.2388916015625	1346.872192382812	29.07641410827637	-550.9716796875	1123.459594726562	15.02426147460938	-645.01025390625	1117.005249023438	50.62673187255859	-470.9946899414062	880.0423583984375	79.65909576416016	-504.4091796875	856.9498901367188	2.364655256271362	-528.1551513671875	1036.961303710938	13.54198741912842	-475.2183532714844	709.1248779296875	77.64311981201172	-498.1601867675781	796.9105224609375	12.96367835998535	-453.6455383300781	802.1528930664062	63.98532485961914	-591.6619873046875	1468.923461914062	434.5902709960938	-615.7382202148438	1405.442504882812	502.5734558105469	-631.2705078125	1116.99658203125	551.1130981445312	-683.9854125976562	1100.096435546875	520.773681640625	-499.8826293945312	893.2872924804688	523.9986572265625	-549.0848999023438	874.9862060546875	588.137939453125	-621.9617309570312	1061.353759765625	559.3533325195312	-493.4309387207031	719.9439697265625	531.6942749023438	-474.9802551269531	801.048583984375	542.8540649414062	-532.6532592773438	800.73779296875	589.1148681640625	-573.42041015625	1681.670532226562	343.6478271484375	-413.8946533203125	1709.218627929688	213.2680816650391	-436.0525817871094	1709.735717773438	355.8889770507812	-540.6799926757812	1680.022583007812	180.9181060791016	-569.6979370117188	931.154052734375	85.61902618408203	-578.677490234375	948.5885009765625	476.3780822753906	-493.189697265625	977.9152221679688	415.6073913574219	-487.6843872070312	951.6902465820312	141.7931976318359	-577.317626953125	484.4938049316406	181.0215759277344	-560.8582153320312	646.5300903320312	132.4680786132812	-691.3862915039062	31.95922088623047	221.5552062988281	-657.9765625	244.7276153564453	195.6594696044922	-485.804443359375	37.19676208496094	294.1329956054688	-560.3079833984375	41.36159515380859	324.717041015625	-567.8287963867188	34.41808700561523	215.9853820800781	-765.15380859375	38.45622634887695	271.1333618164062	-421.6231689453125	528.7257080078125	452.9251708984375	-505.7021179199219	805.6470947265625	484.0047607421875	-443.7335510253906	47.68118286132812	462.9176635742188	-398.3872985839844	383.0558776855469	451.2066040039062	-232.0495147705078	91.77676391601562	422.8726806640625	-292.8821105957031	77.18819427490234	381.4041137695312	-314.5979919433594	66.70048522949219	482.0493774414062	-496.9892883300781	35.48080062866211	406.2413635253906	
